<!DOCTYPE svg PUBLIC "-//W3C//DTD SVG 20010904//EN" "http://www.w3.org/TR/2001/REC-SVG-20010904/DTD/svg10.dtd">
<svg version="1.0" xmlns="http://www.w3.org/2000/svg" width="1600px" height="1600px" viewBox="0 0 16000 16000" preserveAspectRatio="xMidYMid meet">
<g id="layer1" fill="#efdade" stroke="none">
 <path d="M11142 14477 c-7 -8 -10 -16 -8 -18 9 -9 191 6 189 16 -4 17 -168 18 -181 2z"/>
 <path d="M11535 14481 c-9 -16 7 -20 90 -21 103 -2 99 -2 85 15 -14 17 -165 22 -175 6z"/>
 <path d="M11055 14471 c-7 -12 12 -24 25 -16 11 7 4 25 -10 25 -5 0 -11 -4 -15 -9z"/>
 <path d="M10822 14437 c-7 -8 -9 -16 -7 -19 9 -9 66 6 66 17 0 16 -47 17 -59 2z"/>
 <path d="M11965 14440 c-8 -13 9 -19 57 -22 21 -2 36 1 35 7 -1 6 -7 10 -14 10 -6 0 -15 4 -19 8 -11 10 -52 9 -59 -3z"/>
 <path d="M4305 14400 c-3 -5 -12 -7 -19 -4 -8 3 -17 1 -20 -5 -8 -12 10 -24 24 -16 5 3 108 6 229 6 179 0 226 -3 250 -16 18 -9 32 -11 36 -5 7 12 -41 44 -54 36 -5 -4 -12 -2 -16 4 -8 13 -422 14 -430 0z"/>
 <path d="M10631 14399 c-18 -7 -21 -13 -14 -20 13 -13 69 2 66 17 -3 13 -24 14 -52 3z"/>
 <path d="M12165 14401 c-8 -13 42 -34 63 -26 19 7 5 22 -29 30 -16 4 -30 2 -34 -4z"/>
 <path d="M4189 14341 c-28 -25 -40 -43 -34 -48 6 -6 26 6 53 33 54 54 39 66 -19 15z"/>
 <path d="M10556 14372 c-3 -6 -14 -8 -24 -5 -20 5 -49 -21 -34 -31 5 -3 19 1 33 8 13 7 27 13 32 14 8 2 11 12 4 18 -3 3 -8 1 -11 -4z"/>
 <path d="M12305 14360 c-7 -11 35 -31 48 -23 11 6 -12 33 -29 33 -7 0 -16 -5 -19 -10z"/>
 <path d="M4836 14342 c-3 -6 1 -15 8 -21 8 -7 17 -8 20 -3 3 6 -1 15 -8 21 -8 7 -17 8 -20 3z"/>
 <path d="M10435 14330 c-4 -6 -10 -8 -15 -5 -13 8 -72 -24 -65 -35 6 -10 62 7 71 21 3 5 9 7 14 4 5 -3 11 -1 14 4 4 5 2 12 -3 15 -5 4 -12 2 -16 -4z"/>
 <path d="M12416 14321 c-9 -14 32 -34 51 -26 10 3 13 9 7 14 -16 15 -52 22 -58 12z"/>
 <path d="M4866 14302 c-3 -6 1 -15 8 -21 8 -7 17 -8 20 -3 3 6 -1 15 -8 21 -8 7 -17 8 -20 3z"/>
 <path d="M10295 14277 c-12 -10 -14 -16 -7 -21 15 -9 54 12 47 25 -8 12 -18 11 -40 -4z"/>
 <path d="M12515 14281 c-6 -11 29 -33 39 -24 7 7 -12 33 -25 33 -4 0 -10 -4 -14 -9z"/>
 <path d="M4130 14265 c-7 -9 -10 -18 -7 -22 4 -3 2 -12 -4 -19 -13 -16 -4 -48 11 -39 6 4 10 14 8 23 -1 10 3 27 10 39 14 26 0 40 -18 18z"/>
 <path d="M4897 14253 c-8 -13 7 -84 18 -83 13 1 11 68 -3 82 -5 5 -12 6 -15 1z"/>
 <path d="M12586 14251 c-3 -5 5 -16 19 -25 24 -16 45 -6 22 11 -24 19 -36 23 -41 14z"/>
 <path d="M10211 14237 c-6 -8 -8 -17 -5 -20 10 -9 45 13 39 24 -9 13 -21 11 -34 -4z"/>
 <path d="M10132 14192 c-13 -10 -20 -21 -16 -24 10 -10 66 21 59 32 -9 14 -17 12 -43 -8z"/>
 <path d="M12675 14201 c-6 -11 29 -33 39 -24 7 7 -12 33 -25 33 -4 0 -10 -4 -14 -9z"/>
 <path d="M10081 14156 c-7 -8 -8 -17 -3 -20 6 -3 15 1 21 8 7 8 8 17 3 20 -6 3 -15 -1 -21 -8z"/>
 <path d="M12736 14161 c-3 -4 17 -22 44 -39 62 -39 76 -24 16 17 -49 34 -52 35 -60 22z"/>
 <path d="M10009 14112 c-13 -12 -18 -21 -12 -25 6 -4 21 1 34 11 13 12 18 21 12 25 -6 4 -21 -1 -34 -11z"/>
 <path d="M12897 14054 c-8 -9 216 -223 227 -217 4 3 -27 41 -70 85 -91 91 -149 140 -157 132z"/>
 <path d="M9816 13941 c-43 -43 -74 -81 -69 -84 5 -3 44 29 87 72 43 43 74 81 69 84 -5 3 -44 -29 -87 -72z"/>
 <path d="M13136 13812 c-3 -6 1 -15 8 -21 8 -7 17 -8 20 -3 3 6 -1 15 -8 21 -8 7 -17 8 -20 3z"/>
 <path d="M9648 13752 c-38 -44 -60 -84 -51 -93 5 -5 23 13 46 46 20 30 33 57 28 59 -5 3 -15 -2 -23 -12z"/>
 <path d="M13176 13762 c-3 -6 1 -15 8 -21 8 -7 17 -8 20 -3 3 6 -1 15 -8 21 -8 7 -17 8 -20 3z"/>
 <path d="M13217 13713 c-4 -6 1 -21 11 -34 12 -13 21 -18 25 -12 4 6 -1 21 -11 34 -12 13 -21 18 -25 12z"/>
 <path d="M13257 13654 c-3 -4 -2 -16 4 -26 8 -15 14 -17 22 -9 8 8 7 15 -4 26 -8 9 -18 13 -22 9z"/>
 <path d="M9563 13627 c-19 -24 -23 -36 -14 -41 5 -3 16 5 25 19 16 24 6 45 -11 22z"/>
 <path d="M13297 13594 c-3 -4 -2 -16 4 -26 8 -15 14 -17 22 -9 8 8 7 15 -4 26 -8 9 -18 13 -22 9z"/>
 <path d="M9521 13556 c-7 -8 -8 -17 -3 -20 6 -3 15 1 21 8 7 8 8 17 3 20 -6 3 -15 -1 -21 -8z"/>
 <path d="M9485 13500 c-15 -29 -13 -56 5 -45 14 8 30 64 20 70 -5 3 -16 -8 -25 -25z"/>
 <path d="M13347 13503 c-4 -6 3 -22 14 -37 11 -14 17 -26 14 -26 -4 0 -2 -7 5 -15 7 -8 17 -12 22 -9 5 3 3 13 -6 23 -9 10 -14 20 -12 22 3 2 -3 15 -13 28 -11 14 -21 19 -24 14z"/>
 <path d="M9445 13420 c-15 -29 -13 -56 5 -45 14 8 30 64 20 70 -5 3 -16 -8 -25 -25z"/>
 <path d="M13427 13343 c-4 -6 0 -18 7 -28 8 -11 16 -14 19 -8 4 6 0 18 -7 28 -8 11 -16 14 -19 8z"/>
 <path d="M9400 13315 c-7 -8 -9 -15 -5 -15 4 0 2 -6 -4 -14 -8 -9 -8 -16 -2 -20 5 -4 12 -2 16 4 3 5 3 10 -1 10 -4 0 1 9 10 19 10 11 13 22 8 25 -5 3 -15 -1 -22 -9z"/>
 <path d="M13457 13273 c-8 -13 12 -55 23 -48 5 3 10 12 10 19 0 17 -27 40 -33 29z"/>
 <path d="M9360 13225 c-13 -16 -6 -50 9 -41 12 8 21 45 11 51 -4 3 -13 -2 -20 -10z"/>
 <path d="M13505 13140 c-4 -6 -3 -16 3 -22 6 -6 12 -6 17 2 4 6 3 16 -3 22 -6 6 -12 6 -17 -2z"/>
 <path d="M9320 13105 c-13 -16 -6 -50 9 -41 12 8 21 45 11 51 -4 3 -13 -2 -20 -10z"/>
 <path d="M13537 13033 c-8 -13 12 -55 23 -48 5 3 10 12 10 19 0 17 -27 40 -33 29z"/>
 <path d="M9285 12989 c-4 -5 -4 -13 -1 -16 3 -3 1 -12 -5 -19 -13 -16 -3 -52 11 -38 13 13 21 72 11 79 -5 3 -13 0 -16 -6z"/>
 <path d="M13576 12902 c-7 -11 4 -75 14 -86 13 -13 24 20 14 42 -4 9 -6 22 -5 29 2 14 -16 26 -23 15z"/>
 <path d="M9245 12820 c-3 -5 -4 -14 0 -20 3 -5 0 -18 -6 -28 -13 -21 -4 -61 11 -46 12 13 21 92 10 99 -5 3 -11 1 -15 -5z"/>
 <path d="M13618 12645 c-8 -9 7 -80 17 -80 16 0 18 60 2 73 -8 7 -16 10 -19 7z"/>
 <path d="M9201 12476 c-14 -17 -11 -115 4 -119 11 -2 24 122 14 129 -4 2 -12 -3 -18 -10z"/>
 <path d="M3340 9363 c-432 -2 -792 -6 -800 -10 -8 -3 -20 -5 -26 -4 -21 3 -108 -64 -138 -107 -22 -31 -27 -45 -19 -53 8 -8 17 -1 31 27 24 47 43 65 100 93 42 21 44 21 836 21 674 0 795 2 805 14 7 8 8 16 4 18 -4 1 -361 2 -793 1z"/>
 <path d="M4903 9358 c-2 -5 -1 -13 2 -18 4 -7 277 -10 806 -10 782 0 800 0 838 -20 23 -11 42 -16 46 -10 6 10 -38 42 -63 45 -10 1 -24 5 -32 9 -21 9 -1591 13 -1597 4z"/>
 <path d="M6606 9292 c-3 -5 3 -17 13 -26 11 -10 22 -13 25 -8 3 5 -3 17 -13 26 -11 10 -22 13 -25 8z"/>
 <path d="M6647 9243 c-2 -5 2 -23 10 -42 17 -41 40 -30 24 11 -11 28 -27 43 -34 31z"/>
 <path d="M6675 8790 c-4 -6 -5 -14 -2 -17 3 -2 -8 -27 -23 -54 -29 -48 -27 -75 2 -41 22 25 41 63 34 69 -3 4 -1 12 6 20 8 10 8 17 1 24 -8 8 -13 7 -18 -1z"/>
 <path d="M2346 8781 c-8 -12 13 -71 32 -93 24 -29 31 -11 11 29 -10 21 -19 43 -19 50 0 16 -17 26 -24 14z"/>
 <path d="M9195 8760 c-4 -6 -3 -16 3 -22 6 -6 12 -6 17 2 4 6 3 16 -3 22 -6 6 -12 6 -17 -2z"/>
 <path d="M13630 8721 c-6 -12 -6 -22 -1 -26 6 -3 15 3 21 14 6 12 6 22 1 26 -6 3 -15 -3 -21 -14z"/>
 <path d="M9227 8693 c-4 -6 12 -27 33 -48 22 -22 40 -35 40 -30 0 4 9 0 20 -10 11 -10 20 -15 20 -10 0 4 6 2 14 -4 9 -8 16 -8 20 -2 4 5 2 12 -4 16 -5 3 -10 3 -10 -1 0 -4 -9 1 -20 11 -11 10 -20 14 -20 9 0 -4 -20 11 -44 35 -24 24 -46 39 -49 34z"/>
 <path d="M2435 8641 c-13 -22 90 -70 108 -52 7 7 0 14 -19 20 -16 6 -41 17 -56 25 -15 8 -30 11 -33 7z"/>
 <path d="M6582 8638 c-7 -7 -17 -13 -24 -14 -33 -5 -69 -25 -63 -34 8 -13 43 -4 66 16 9 8 18 12 21 9 3 -3 11 1 17 9 15 17 -1 30 -17 14z"/>
 <path d="M13522 8619 c-24 -9 -22 -29 2 -29 17 0 40 27 29 33 -4 3 -18 1 -31 -4z"/>
 <path d="M9415 7661 c-7 -12 12 -24 25 -16 11 7 4 25 -10 25 -5 0 -11 -4 -15 -9z"/>
 <path d="M9845 7660 c-3 -6 6 -15 22 -20 15 -6 40 -17 55 -25 28 -16 47 -5 25 14 -13 10 -81 41 -91 41 -3 0 -8 -5 -11 -10z"/>
 <path d="M13091 7654 c-44 -19 -62 -34 -55 -45 3 -5 17 -3 32 6 15 8 40 19 55 25 16 5 25 14 22 20 -8 13 -13 12 -54 -6z"/>
 <path d="M13545 7661 c-7 -12 12 -24 24 -16 5 3 12 1 16 -5 4 -6 11 -8 16 -4 5 3 7 10 3 15 -3 5 -9 7 -14 4 -5 -3 -11 -1 -15 5 -8 13 -22 13 -30 1z"/>
 <path d="M9315 7609 c-25 -23 -42 -46 -39 -51 4 -5 20 4 38 20 17 16 41 35 54 41 21 11 22 31 1 31 -5 0 -30 -19 -54 -41z"/>
 <path d="M13636 7621 c-3 -5 5 -16 18 -25 13 -8 37 -39 53 -68 l28 -53 -5 -2730 c-3 -1502 -2 -2734 2 -2739 4 -5 12 3 18 18 14 38 14 5442 0 5451 -6 4 -8 10 -5 15 8 13 -19 62 -56 105 -32 36 -44 42 -53 26z"/>
 <path d="M4235 7600 c-3 -5 0 -13 8 -16 23 -9 112 0 110 11 -4 14 -110 19 -118 5z"/>
 <path d="M4515 7600 c-3 -5 0 -13 8 -16 23 -8 102 0 102 11 0 14 -102 19 -110 5z"/>
 <path d="M9968 7605 c-4 -4 7 -28 23 -53 16 -25 29 -54 29 -63 0 -21 16 -33 25 -19 15 24 -59 153 -77 135z"/>
 <path d="M4105 7590 c-8 -13 20 -24 41 -16 20 8 9 26 -16 26 -10 0 -22 -5 -25 -10z"/>
 <path d="M4705 7591 c-7 -13 17 -24 40 -19 9 1 16 8 16 13 0 14 -48 19 -56 6z"/>
 <path d="M4035 7581 c-7 -12 12 -24 25 -16 11 7 4 25 -10 25 -5 0 -11 -4 -15 -9z"/>
 <path d="M4795 7580 c-8 -12 20 -24 35 -15 6 3 8 11 5 16 -8 12 -32 12 -40 -1z"/>
 <path d="M3975 7571 c-7 -12 12 -24 25 -16 11 7 4 25 -10 25 -5 0 -11 -4 -15 -9z"/>
 <path d="M4865 7571 c-7 -12 12 -24 25 -16 11 7 4 25 -10 25 -5 0 -11 -4 -15 -9z"/>
 <path d="M12978 7562 c-23 -26 -40 -84 -29 -95 7 -7 14 0 20 19 6 16 17 41 25 56 17 32 6 46 -16 20z"/>
 <path d="M3905 7560 c-8 -12 20 -24 35 -15 6 3 8 11 5 16 -8 12 -32 12 -40 -1z"/>
 <path d="M4915 7560 c-8 -13 20 -24 41 -16 20 8 9 26 -16 26 -10 0 -22 -5 -25 -10z"/>
 <path d="M3845 7550 c-8 -12 20 -24 35 -15 6 3 8 11 5 16 -8 12 -32 12 -40 -1z"/>
 <path d="M4985 7551 c-7 -12 12 -24 24 -16 5 3 13 0 16 -6 4 -5 13 -8 21 -5 7 3 16 1 20 -5 3 -6 12 -8 20 -5 7 3 16 1 20 -5 3 -6 12 -8 19 -5 7 2 17 0 23 -6 12 -12 35 -1 26 13 -3 6 -12 8 -20 5 -7 -3 -16 -1 -20 5 -3 6 -12 8 -20 5 -7 -3 -16 -1 -20 5 -3 6 -12 8 -20 5 -7 -3 -16 -1 -20 5 -3 6 -12 8 -20 5 -7 -3 -16 -1 -19 4 -8 13 -22 13 -30 1z"/>
 <path d="M3777 7534 c-3 -4 -21 -8 -39 -10 -46 -4 -90 -22 -83 -34 6 -10 54 -4 95 13 14 6 30 11 35 11 6 1 11 5 13 11 4 11 -11 18 -21 9z"/>
 <path d="M9245 7510 c-4 -6 -3 -16 3 -22 6 -6 12 -6 17 2 4 6 3 16 -3 22 -6 6 -12 6 -17 -2z"/>
 <path d="M5205 7490 c-6 -10 21 -24 69 -36 32 -8 44 14 14 25 -46 17 -77 21 -83 11z"/>
 <path d="M3520 7456 c-118 -46 -158 -64 -164 -74 -11 -18 8 -21 38 -5 17 9 74 32 126 52 86 32 116 51 93 58 -4 1 -46 -13 -93 -31z"/>
 <path d="M9235 7459 c-10 -27 0 -5404 10 -5404 14 0 19 5395 5 5409 -6 6 -11 4 -15 -5z"/>
 <path d="M5325 7450 c-3 -5 2 -13 12 -17 10 -3 46 -19 80 -34 35 -15 65 -24 68 -19 6 10 -10 22 -65 47 -66 30 -88 35 -95 23z"/>
 <path d="M3281 7347 c-6 -8 -8 -17 -5 -20 10 -9 45 13 39 24 -9 13 -21 11 -34 -4z"/>
 <path d="M5595 7330 c-3 -5 5 -15 17 -23 13 -8 35 -21 50 -30 36 -22 46 -4 11 21 -47 33 -71 43 -78 32z"/>
 <path d="M3219 7312 c-13 -12 -18 -21 -12 -25 6 -4 21 1 34 11 13 12 18 21 12 25 -6 4 -21 -1 -34 -11z"/>
 <path d="M3122 7254 c-29 -19 -50 -40 -46 -45 3 -6 16 -3 32 7 14 9 40 25 59 36 18 11 30 24 27 29 -8 14 -15 11 -72 -27z"/>
 <path d="M5706 7261 c-3 -5 24 -28 61 -52 37 -23 91 -62 120 -86 30 -24 59 -41 65 -37 6 4 8 3 5 -3 -4 -6 0 -16 7 -22 9 -8 16 -8 20 -2 7 10 -81 84 -195 164 -71 50 -75 52 -83 38z"/>
 <path d="M3002 7169 c-29 -22 -50 -45 -47 -50 6 -9 29 5 89 54 51 41 13 37 -42 -4z"/>
 <path d="M2911 7096 c-13 -13 -18 -26 -13 -30 5 -3 19 5 31 18 13 13 18 26 13 30 -5 3 -19 -5 -31 -18z"/>
 <path d="M2781 6976 c-40 -41 -69 -76 -64 -79 5 -3 42 27 82 67 40 41 69 76 64 79 -5 3 -42 -27 -82 -67z"/>
 <path d="M6047 7002 c-4 -5 9 -23 27 -41 19 -18 36 -29 39 -23 4 5 -9 23 -27 41 -19 18 -36 29 -39 23z"/>
 <path d="M6156 6882 c-3 -5 3 -17 13 -26 11 -10 22 -13 25 -8 3 5 -3 17 -13 26 -11 10 -22 13 -25 8z"/>
 <path d="M2643 6823 c-72 -89 -115 -155 -105 -165 5 -5 20 8 37 34 15 24 50 71 77 105 57 72 49 96 -9 26z"/>
 <path d="M6207 6823 c-8 -12 72 -115 84 -108 5 4 0 19 -12 36 -11 16 -25 27 -30 24 -5 -4 -6 0 -4 8 6 15 -30 53 -38 40z"/>
 <path d="M6307 6684 c-3 -3 1 -17 10 -31 11 -17 19 -21 27 -13 7 7 4 16 -10 30 -11 11 -23 18 -27 14z"/>
 <path d="M2487 6598 c-51 -80 -68 -116 -57 -123 9 -6 13 0 73 102 44 77 30 94 -16 21z"/>
 <path d="M6347 6624 c-3 -3 13 -37 35 -75 25 -43 44 -67 50 -61 6 6 -5 33 -27 70 -36 62 -48 76 -58 66z"/>
 <path d="M2402 6437 c-26 -33 -53 -100 -44 -109 7 -7 20 9 40 51 27 56 29 89 4 58z"/>
 <path d="M6447 6444 c-3 -4 -2 -16 4 -26 8 -15 14 -17 22 -9 8 8 7 15 -4 26 -8 9 -18 13 -22 9z"/>
 <path d="M6496 6342 c-9 -15 12 -54 25 -47 12 8 11 18 -4 40 -10 12 -16 14 -21 7z"/>
 <path d="M2325 6275 c-11 -25 -13 -41 -6 -48 6 -6 15 3 26 28 10 26 12 42 5 49 -6 6 -15 -3 -25 -29z"/>
 <path d="M6526 6271 c-4 -5 -2 -21 4 -35 5 -14 15 -38 20 -53 7 -17 14 -23 20 -17 7 7 4 27 -6 57 -17 49 -29 64 -38 48z"/>
 <path d="M2291 6191 c-6 -11 -10 -24 -10 -28 1 -4 -3 -21 -10 -37 -6 -16 -9 -31 -6 -34 3 -3 -2 -13 -10 -22 -17 -19 -25 -79 -10 -78 7 0 41 83 34 83 0 0 4 13 10 28 6 15 10 31 9 35 -1 4 4 18 11 31 9 15 10 26 3 33 -7 7 -14 3 -21 -11z"/>
 <path d="M6575 6141 c-6 -11 30 -136 46 -157 5 -6 6 -14 3 -17 -4 -3 -4 -14 0 -23 5 -13 10 -14 18 -6 6 6 7 18 3 29 -4 10 -9 25 -10 33 -4 30 -37 135 -45 143 -4 5 -11 4 -15 -2z"/>
 <path d="M2210 5924 c-6 -15 -9 -33 -6 -40 2 -6 0 -16 -6 -22 -13 -13 -2 -46 12 -37 6 4 10 14 8 23 -1 10 0 22 3 27 13 22 18 64 9 70 -6 3 -15 -6 -20 -21z"/>
 <path d="M6645 5890 c-4 -6 -2 -17 4 -24 6 -7 8 -16 5 -19 -4 -3 -3 -14 1 -24 4 -10 7 -28 6 -40 -1 -11 3 -24 8 -28 15 -8 25 21 16 43 -5 9 -7 24 -6 34 1 9 -3 19 -8 22 -6 4 -8 13 -5 20 7 17 -12 30 -21 16z"/>
 <path d="M2175 5760 c-4 -6 -3 -16 3 -22 6 -6 12 -6 17 2 4 6 3 16 -3 22 -6 6 -12 6 -17 -2z"/>
 <path d="M6675 5730 c-4 -6 -3 -16 3 -22 6 -6 12 -6 17 2 4 6 3 16 -3 22 -6 6 -12 6 -17 -2z"/>
 <path d="M2164 5706 c-4 -10 -2 -22 4 -28 8 -8 13 -7 18 6 4 10 2 22 -4 28 -8 8 -13 7 -18 -6z"/>
 <path d="M6685 5680 c-4 -6 -3 -16 3 -22 6 -6 12 -6 17 2 4 6 3 16 -3 22 -6 6 -12 6 -17 -2z"/>
 <path d="M2154 5626 c-8 -21 3 -49 16 -41 5 3 10 15 10 25 0 25 -18 36 -26 16z"/>
 <path d="M6694 5616 c-8 -21 3 -49 16 -41 5 3 10 15 10 25 0 25 -18 36 -26 16z"/>
 <path d="M2144 5526 c-4 -10 -2 -22 4 -28 8 -8 13 -7 18 6 4 10 2 22 -4 28 -8 8 -13 7 -18 -6z"/>
 <path d="M6705 5517 c-9 -22 -2 -62 10 -60 6 1 11 14 13 29 4 32 -14 56 -23 31z"/>
 <path d="M2134 5427 c-7 -20 -2 -47 11 -50 14 -3 19 43 6 56 -7 7 -12 6 -17 -6z"/>
 <path d="M6715 5317 c-9 -22 -2 -62 10 -60 6 1 11 14 13 29 4 32 -14 56 -23 31z"/>
 <path d="M2125 5189 c-10 -26 -1 -419 10 -422 14 -3 19 413 6 426 -7 7 -12 5 -16 -4z"/>
 <path d="M6725 5058 c-9 -24 -2 -93 10 -93 14 0 19 85 6 98 -7 7 -12 5 -16 -5z"/>
 <path d="M2125 4459 c-10 -26 -1 -419 10 -422 14 -3 19 413 6 426 -7 7 -12 5 -16 -4z"/>
 <path d="M10035 4350 c-3 -6 0 -12 7 -15 26 -10 2908 0 2911 10 3 14 -2909 19 -2918 5z"/>
 <path d="M6725 4258 c-9 -24 -2 -93 10 -93 14 0 19 85 6 98 -7 7 -12 5 -16 -5z"/>
 <path d="M6715 3968 c-9 -22 -2 -68 10 -71 14 -3 19 63 6 76 -7 7 -12 5 -16 -5z"/>
 <path d="M2134 3827 c-7 -20 -2 -47 11 -50 14 -3 19 43 6 56 -7 7 -12 6 -17 -6z"/>
 <path d="M6705 3737 c-9 -22 -2 -62 10 -60 6 1 11 14 13 29 4 32 -14 56 -23 31z"/>
 <path d="M2144 3696 c-4 -10 -2 -22 4 -28 8 -8 13 -7 18 6 4 10 2 22 -4 28 -8 8 -13 7 -18 -6z"/>
 <path d="M6694 3616 c-8 -21 3 -49 16 -41 5 3 10 15 10 25 0 25 -18 36 -26 16z"/>
 <path d="M2154 3606 c-8 -21 3 -49 16 -41 5 3 10 15 10 25 0 25 -18 36 -26 16z"/>
 <path d="M6685 3540 c-4 -6 -3 -16 3 -22 6 -6 12 -6 17 2 4 6 3 16 -3 22 -6 6 -12 6 -17 -2z"/>
 <path d="M2164 3516 c-4 -10 -2 -22 4 -28 8 -8 13 -7 18 6 4 10 2 22 -4 28 -8 8 -13 7 -18 -6z"/>
 <path d="M6675 3490 c-4 -6 -3 -16 3 -22 6 -6 12 -6 17 2 4 6 3 16 -3 22 -6 6 -12 6 -17 -2z"/>
 <path d="M2175 3460 c-4 -6 -3 -16 3 -22 6 -6 12 -6 17 2 4 6 3 16 -3 22 -6 6 -12 6 -17 -2z"/>
 <path d="M6664 3426 c-4 -10 -2 -22 4 -28 8 -8 13 -7 18 6 4 10 2 22 -4 28 -8 8 -13 7 -18 -6z"/>
 <path d="M2194 3365 c-4 -9 -2 -21 4 -27 6 -6 8 -16 6 -22 -7 -18 14 -68 26 -61 9 6 4 48 -9 70 -3 6 -4 17 -3 27 4 22 -17 33 -24 13z"/>
 <path d="M6655 3370 c-4 -6 -4 -14 -1 -17 3 -3 1 -12 -5 -19 -6 -7 -8 -18 -4 -24 9 -14 28 -1 21 15 -2 7 1 18 7 24 8 8 8 14 0 22 -8 8 -13 8 -18 -1z"/>
 <path d="M6624 3256 c-4 -9 -4 -20 0 -23 3 -3 2 -11 -3 -17 -10 -13 -34 -84 -36 -106 -1 -8 -7 -26 -14 -39 -9 -15 -10 -26 -3 -33 7 -7 14 -3 22 12 6 12 9 24 6 27 -3 4 -2 11 3 17 9 12 33 82 36 106 1 8 6 23 10 33 4 11 3 23 -3 29 -8 8 -13 7 -18 -6z"/>
 <path d="M2235 3211 c-6 -11 40 -168 55 -184 20 -22 17 16 -7 94 -28 90 -37 107 -48 90z"/>
 <path d="M6540 2995 c-7 -19 -7 -32 -1 -38 7 -7 14 -1 21 18 7 19 7 32 1 38 -7 7 -14 1 -21 -18z"/>
 <path d="M2306 3001 c-8 -12 9 -57 24 -66 5 -3 8 -10 5 -15 -4 -7 7 -34 28 -68 5 -7 13 -10 18 -7 5 4 -1 25 -13 48 -12 23 -23 47 -24 52 -4 20 -24 65 -28 65 -3 0 -7 -4 -10 -9z"/>
 <path d="M6438 2770 c-41 -83 -72 -153 -67 -156 11 -7 36 34 106 174 35 70 53 116 47 122 -6 6 -38 -48 -86 -140z"/>
 <path d="M2407 2773 c-12 -19 126 -249 143 -238 6 4 -27 66 -128 234 -6 10 -11 11 -15 4z"/>
 <path d="M6319 2563 c-13 -21 -27 -43 -31 -50 -5 -6 -4 -14 1 -18 14 -8 75 85 63 97 -6 6 -18 -4 -33 -29z"/>
 <path d="M2565 2510 c-8 -13 54 -92 66 -84 5 3 -5 25 -23 50 -35 49 -34 48 -43 34z"/>
 <path d="M6246 2458 c-13 -18 -22 -36 -20 -40 7 -11 19 -2 44 32 28 40 7 48 -24 8z"/>
 <path d="M2636 2412 c-3 -5 3 -17 13 -26 11 -10 22 -13 25 -8 3 5 -3 17 -13 26 -11 10 -22 13 -25 8z"/>
 <path d="M6191 2386 c-13 -13 -18 -26 -13 -30 5 -3 19 5 31 18 13 13 18 26 13 30 -5 3 -19 -5 -31 -18z"/>
 <path d="M2686 2352 c-3 -5 8 -21 23 -36 16 -15 31 -23 35 -18 3 5 -8 21 -23 36 -16 15 -31 23 -35 18z"/>
 <path d="M6071 2256 c-40 -41 -69 -76 -64 -79 5 -3 42 27 82 67 40 41 69 76 64 79 -5 3 -42 -27 -82 -67z"/>
 <path d="M2826 2212 c-3 -5 5 -19 18 -31 13 -13 26 -18 30 -13 3 5 -5 19 -18 31 -13 13 -26 18 -30 13z"/>
 <path d="M5946 2141 c-10 -11 -13 -22 -8 -25 5 -3 17 3 26 13 10 11 13 22 8 25 -5 3 -17 -3 -26 -13z"/>
 <path d="M2906 2142 c-5 -8 14 -29 56 -60 10 -8 19 -9 22 -3 3 5 -12 23 -33 40 -22 17 -42 28 -45 23z"/>
 <path d="M5901 2106 c-7 -8 -8 -17 -3 -20 6 -3 15 1 21 8 7 8 8 17 3 20 -6 3 -15 -1 -21 -8z"/>
 <path d="M2996 2072 c-3 -6 1 -15 8 -21 8 -7 17 -8 20 -3 3 6 -1 15 -8 21 -8 7 -17 8 -20 3z"/>
 <path d="M5800 2034 c-36 -25 -100 -66 -143 -91 -50 -29 -75 -49 -69 -55 17 -17 299 163 287 183 -8 12 -1 15 -75 -37z"/>
 <path d="M3035 2040 c-6 -10 9 -23 103 -82 126 -80 321 -173 334 -160 9 9 2 16 -28 28 -80 33 -219 107 -310 164 -52 32 -96 55 -99 50z"/>
 <path d="M10020 2023 c-5 -15 -16 -40 -24 -55 -8 -15 -11 -30 -6 -33 11 -7 47 43 55 77 9 36 -13 46 -25 11z"/>
 <path d="M12946 2041 c-10 -16 13 -66 25 -54 6 6 6 19 0 36 -11 29 -16 32 -25 18z"/>
 <path d="M9246 2032 c-8 -13 2 -39 26 -75 30 -43 38 -23 12 29 -28 56 -30 58 -38 46z"/>
 <path d="M12975 1971 c-4 -8 -1 -19 8 -28 19 -20 30 -1 13 22 -10 14 -15 15 -21 6z"/>
 <path d="M9941 1906 c-7 -8 -8 -17 -3 -20 6 -3 15 1 21 8 7 8 8 17 3 20 -6 3 -15 -1 -21 -8z"/>
 <path d="M13026 1912 c-3 -6 1 -15 8 -21 8 -7 17 -8 20 -3 3 6 -1 15 -8 21 -8 7 -17 8 -20 3z"/>
 <path d="M13605 1890 c-22 -10 -49 -21 -59 -25 -14 -4 -16 -9 -8 -17 13 -13 92 13 112 37 18 22 -2 24 -45 5z"/>
 <path d="M9356 1891 c-9 -15 23 -36 35 -24 8 8 5 14 -9 22 -12 6 -23 7 -26 2z"/>
 <path d="M5516 1868 c-25 -13 -35 -23 -28 -30 10 -10 65 12 77 31 11 19 -11 19 -49 -1z"/>
 <path d="M9874 1876 c-17 -6 -31 -15 -32 -21 -1 -15 49 -8 66 8 19 20 3 26 -34 13z"/>
 <path d="M9415 1860 c-8 -12 20 -24 35 -15 6 3 8 11 5 16 -8 12 -32 12 -40 -1z"/>
 <path d="M13125 1861 c-7 -12 12 -24 25 -16 11 7 4 25 -10 25 -5 0 -11 -4 -15 -9z"/>
 <path d="M5409 1820 c-23 -13 -141 -54 -229 -80 -41 -12 -79 -26 -84 -30 -5 -5 -14 -6 -21 -4 -16 7 -29 -12 -15 -21 5 -3 16 -3 22 1 7 5 19 9 28 10 66 6 335 103 333 119 -2 14 -16 16 -34 5z"/>
 <path d="M3495 1790 c-6 -9 50 -40 74 -40 21 0 21 21 -1 29 -51 19 -67 21 -73 11z"/>
 <path d="M3605 1750 c-6 -10 44 -34 53 -25 3 2 11 0 18 -5 6 -6 16 -10 20 -9 5 1 22 -3 38 -10 16 -6 31 -9 34 -6 3 2 11 0 19 -7 7 -6 16 -8 20 -5 3 4 12 2 19 -4 17 -14 48 -4 39 12 -4 6 -16 9 -26 6 -10 -3 -22 -1 -25 4 -3 5 -11 9 -17 8 -7 -1 -25 3 -41 10 -16 6 -31 9 -34 6 -3 -2 -11 0 -18 5 -6 6 -16 10 -20 9 -5 -1 -22 3 -37 9 -34 14 -34 14 -42 2z"/>
 <path d="M4995 1690 c-8 -12 20 -24 35 -15 6 3 8 11 5 16 -8 12 -32 12 -40 -1z"/>
 <path d="M3885 1681 c-7 -12 12 -24 25 -16 11 7 4 25 -10 25 -5 0 -11 -4 -15 -9z"/>
 <path d="M3935 1671 c-7 -12 12 -24 25 -16 11 7 4 25 -10 25 -5 0 -11 -4 -15 -9z"/>
 <path d="M4905 1671 c-7 -12 12 -24 25 -16 11 7 4 25 -10 25 -5 0 -11 -4 -15 -9z"/>
 <path d="M3985 1660 c-8 -13 20 -24 41 -16 20 8 9 26 -16 26 -10 0 -22 -5 -25 -10z"/>
 <path d="M4835 1660 c-8 -13 20 -24 41 -16 20 8 9 26 -16 26 -10 0 -22 -5 -25 -10z"/>
 <path d="M4065 1651 c-7 -13 17 -24 40 -19 9 1 16 8 16 13 0 14 -48 19 -56 6z"/>
 <path d="M4745 1650 c-8 -13 20 -24 41 -16 20 8 9 26 -16 26 -10 0 -22 -5 -25 -10z"/>
 <path d="M4185 1640 c-8 -13 20 -24 41 -16 20 8 9 26 -16 26 -10 0 -22 -5 -25 -10z"/>
 <path d="M4635 1640 c-8 -12 20 -24 35 -15 6 3 8 11 5 16 -8 12 -32 12 -40 -1z"/>
 <path d="M4355 1630 c-3 -5 0 -13 8 -16 23 -9 152 0 152 11 0 14 -151 19 -160 5z"/>
 </g>
<g id="layer2" fill="#9e1b34" stroke="none">
 <path d="M0 8000 l0 -8000 8000 0 8000 0 0 8000 0 8000 -8000 0 -8000 0 0 -8000z m15190 0 l0 -7190 -7190 0 -7190 0 0 7190 0 7190 7190 0 7190 0 0 -7190z"/>
 <path d="M11150 14475 c-284 -19 -489 -62 -735 -153 -38 -14 -79 -32 -90 -39 -11 -7 -25 -13 -31 -13 -18 0 -146 -73 -249 -143 -110 -74 -313 -271 -398 -387 -94 -128 -181 -281 -255 -451 -25 -56 -102 -288 -102 -306 0 -7 -9 -46 -20 -86 -24 -89 -49 -234 -62 -352 -15 -136 -22 -3749 -8 -3798 13 -45 78 -119 124 -143 28 -14 223 -16 2101 -16 1460 0 2078 3 2098 11 48 19 98 64 123 114 l24 47 -2 1853 c-3 2022 1 1876 -59 2187 -112 584 -405 1055 -839 1351 -68 46 -242 135 -320 164 -178 66 -259 89 -405 116 -60 11 -117 22 -125 25 -23 8 -425 34 -515 32 -44 0 -159 -6 -255 -13z"/>
 <path d="M4275 14389 c-46 -13 -110 -73 -137 -127 l-23 -47 0 -2432 0 -2433 -793 0 c-787 0 -793 0 -835 -21 -55 -28 -94 -64 -120 -114 -20 -36 -22 -58 -25 -228 -4 -222 5 -265 73 -332 81 -82 -103 -75 2107 -75 2193 0 2012 -6 2091 69 74 69 81 94 85 293 3 141 1 187 -12 232 -20 68 -63 119 -127 152 l-48 24 -796 0 -795 0 0 2435 c0 2021 -2 2441 -13 2468 -22 52 -68 98 -122 123 -48 23 -59 24 -265 23 -118 0 -229 -5 -245 -10z"/>
 <path d="M9369 7640 c-50 -27 -106 -92 -119 -138 -7 -28 -9 -867 -8 -2763 3 -2555 4 -2726 20 -2755 24 -44 73 -91 119 -114 35 -18 59 -20 264 -20 254 0 266 3 337 77 72 74 68 -3 68 1269 l0 1144 1445 0 1445 0 0 -1141 c0 -846 3 -1152 12 -1181 15 -49 78 -123 129 -148 35 -18 60 -20 267 -20 l228 0 54 32 c37 22 64 49 85 82 l30 49 3 2734 2 2733 -24 48 c-26 51 -52 79 -106 111 -33 20 -49 21 -270 21 -264 0 -281 -4 -347 -77 -66 -73 -63 -4 -63 -1300 l0 -1173 -1445 0 -1445 0 -2 1193 -3 1194 -30 49 c-17 27 -51 62 -75 79 l-45 30 -245 2 c-225 2 -248 1 -281 -17z"/>
 <path d="M4150 7593 c-278 -26 -587 -111 -810 -223 -670 -338 -1080 -956 -1186 -1790 -13 -100 -17 -265 -21 -817 -7 -1040 9 -1251 124 -1622 203 -659 662 -1146 1298 -1378 272 -100 510 -137 875 -137 260 -1 352 7 550 45 297 58 589 181 835 354 284 199 499 452 656 770 139 282 211 537 244 865 38 383 39 1502 0 1880 -35 337 -119 631 -261 910 -129 253 -283 452 -486 626 -313 267 -642 418 -1078 494 -105 19 -170 23 -410 25 -157 1 -305 1 -330 -2z"/>
 </g>
<g id="layer3" fill="#ffffff" stroke="none">
 <path d="M795 15198 c-3 -7 -4 -3251 -3 -7208 l3 -7195 7205 0 7205 0 0 7205 0 7205 -7203 3 c-5757 2 -7204 0 -7207 -10z m10909 -737 c3 -4 49 -11 103 -15 128 -9 194 -16 213 -23 8 -3 22 -7 30 -8 84 -15 172 -37 202 -49 21 -9 47 -16 58 -16 20 0 29 -4 77 -28 13 -7 28 -12 34 -12 7 0 30 -9 53 -19 23 -11 64 -30 91 -42 28 -12 62 -31 77 -41 14 -10 31 -18 36 -18 13 0 158 -96 167 -110 4 -6 25 -23 48 -37 51 -32 217 -192 217 -209 0 -7 8 -19 18 -26 28 -21 101 -113 111 -142 6 -14 15 -26 21 -26 5 0 10 -6 10 -13 0 -8 9 -22 20 -32 11 -10 20 -24 20 -32 0 -8 13 -33 28 -56 15 -23 37 -62 49 -87 11 -25 35 -74 52 -110 17 -36 31 -73 31 -82 0 -9 5 -20 10 -23 6 -3 10 -16 10 -29 0 -12 4 -26 8 -31 5 -6 14 -30 21 -55 7 -25 17 -54 21 -65 8 -22 31 -111 35 -135 1 -8 5 -22 7 -30 8 -22 28 -156 28 -185 0 -14 4 -33 9 -43 27 -51 31 -347 31 -2086 l0 -1790 -21 -40 c-11 -23 -38 -56 -60 -75 l-39 -33 -2092 0 c-1886 0 -2096 2 -2124 16 -38 20 -59 43 -84 92 -20 38 -20 73 -20 1896 0 1227 3 1859 10 1863 6 3 10 27 10 52 0 53 19 221 28 243 3 8 6 22 7 30 1 18 25 129 32 150 3 8 7 22 9 30 6 30 27 105 35 125 4 11 13 38 20 60 7 22 21 60 32 85 10 25 22 54 27 65 16 41 91 191 110 220 11 17 24 39 29 50 45 100 246 334 387 450 20 17 48 40 62 53 14 12 29 22 33 22 5 0 30 16 55 35 26 20 61 42 78 50 17 8 38 19 46 24 29 19 185 88 215 95 17 4 44 13 60 20 58 25 259 76 300 76 13 0 27 5 30 10 3 6 27 10 53 10 26 0 67 5 92 11 25 6 73 11 107 11 35 0 65 4 68 9 8 12 552 12 559 0z m-6969 -81 c4 -6 11 -8 16 -4 22 13 107 -58 137 -115 10 -19 12 -506 12 -2461 0 -2022 2 -2439 13 -2448 10 -8 246 -12 813 -14 734 -3 802 -4 830 -20 41 -23 93 -74 107 -107 15 -35 20 -414 7 -464 -13 -43 -72 -106 -123 -131 -32 -15 -198 -16 -2025 -16 -1453 0 -1998 3 -2023 11 -51 17 -115 84 -129 134 -8 29 -11 108 -9 247 4 203 4 205 31 246 15 22 49 54 75 69 l48 28 800 3 c440 1 803 6 807 10 4 4 8 1102 8 2439 0 1522 4 2434 10 2438 5 3 7 12 4 19 -3 7 2 19 11 26 8 7 15 18 15 25 0 23 102 91 120 80 5 -3 11 -1 15 5 4 6 84 10 215 10 131 0 211 -4 215 -10z m5182 -6754 c34 -18 68 -48 91 -84 16 -24 17 -107 22 -1237 l5 -1210 1460 0 1460 0 5 1205 c4 879 8 1212 17 1230 13 29 67 82 101 99 16 8 99 12 265 12 236 0 243 -1 287 -24 30 -16 55 -40 75 -72 l30 -48 3 -2725 2 -2725 -22 -44 c-25 -50 -72 -104 -107 -122 -16 -9 -90 -13 -256 -12 -253 0 -277 4 -334 62 -60 61 -56 -30 -61 1244 l-5 1170 -1460 0 -1460 0 -5 -1176 c-4 -1026 -7 -1178 -20 -1194 -25 -30 -71 -75 -77 -75 -4 0 -14 -7 -24 -16 -14 -13 -53 -15 -254 -16 -130 0 -239 3 -242 6 -4 3 -13 6 -22 6 -18 0 -120 96 -122 114 -1 6 -4 22 -7 36 -7 31 -8 5427 -1 5455 17 68 68 129 124 147 59 19 493 15 532 -6z m-5197 -51 c30 -2 69 -6 85 -8 17 -3 57 -8 90 -12 33 -4 65 -12 72 -17 7 -5 16 -7 21 -4 11 7 297 -69 317 -84 6 -4 23 -10 40 -14 40 -10 331 -154 346 -172 6 -8 16 -14 22 -14 16 0 197 -134 257 -190 117 -110 136 -129 175 -175 22 -26 50 -57 63 -70 12 -12 22 -27 22 -33 0 -6 6 -15 14 -19 7 -4 26 -28 42 -52 16 -24 36 -54 44 -66 40 -59 90 -147 90 -159 0 -7 9 -25 20 -39 11 -14 20 -31 20 -37 0 -7 12 -35 27 -64 42 -82 50 -99 62 -141 7 -22 17 -49 22 -60 17 -38 48 -149 43 -156 -2 -4 0 -10 6 -14 5 -3 10 -16 10 -28 0 -12 7 -42 16 -66 8 -24 13 -50 10 -57 -3 -7 -1 -16 3 -18 5 -3 12 -34 16 -68 5 -35 10 -74 12 -88 26 -179 36 -480 36 -1035 0 -646 -15 -1003 -49 -1147 -4 -18 -7 -39 -5 -46 1 -8 -3 -20 -9 -27 -7 -8 -9 -19 -6 -24 4 -5 0 -29 -9 -53 -8 -24 -15 -53 -15 -65 0 -12 -5 -25 -10 -28 -6 -4 -8 -10 -5 -15 4 -7 -12 -64 -32 -110 -3 -8 -5 -19 -4 -24 1 -4 -5 -19 -14 -32 -8 -13 -15 -29 -15 -36 0 -7 -9 -30 -20 -51 -11 -20 -20 -43 -20 -51 0 -20 -127 -267 -151 -292 -10 -11 -19 -24 -19 -28 0 -13 -103 -156 -112 -156 -5 0 -11 -8 -15 -17 -8 -22 -38 -56 -139 -156 -107 -106 -124 -121 -166 -149 -20 -14 -45 -33 -55 -43 -22 -23 -162 -113 -223 -144 -25 -13 -52 -27 -60 -32 -8 -5 -31 -16 -50 -25 -19 -9 -57 -27 -85 -40 -90 -42 -284 -105 -365 -120 -104 -18 -138 -25 -160 -30 -14 -3 -41 -8 -60 -10 -19 -2 -55 -6 -80 -8 -93 -11 -258 -21 -335 -21 -181 0 -514 33 -556 55 -9 5 -19 7 -22 3 -3 -3 -14 -2 -24 2 -10 5 -21 8 -25 7 -6 -1 -100 24 -128 35 -8 3 -26 7 -39 9 -13 2 -29 8 -34 13 -6 6 -20 11 -32 11 -11 0 -38 9 -60 20 -22 11 -44 20 -50 20 -20 0 -247 117 -325 167 -152 98 -197 135 -355 293 -122 123 -170 177 -210 241 -5 8 -31 47 -56 85 -46 69 -62 100 -131 244 -54 114 -68 147 -68 163 0 9 -4 18 -8 21 -4 2 -20 47 -36 98 -15 51 -34 114 -42 139 -8 25 -14 50 -13 55 1 5 0 16 -4 24 -3 8 -8 33 -12 55 -3 22 -9 51 -12 65 -17 84 -32 245 -40 430 -8 188 -8 1267 0 1435 9 177 26 348 41 415 3 14 9 43 12 65 3 22 8 47 11 55 4 8 5 19 4 24 -1 6 4 28 13 50 8 23 17 60 21 83 4 24 11 45 16 49 5 3 9 11 9 19 0 8 5 26 12 42 6 15 10 32 9 37 -1 4 5 19 14 32 8 13 15 29 15 35 0 27 138 309 185 379 19 29 35 54 35 56 0 8 85 124 128 174 73 85 253 260 266 260 4 0 23 15 42 34 20 19 50 42 69 50 18 9 35 20 37 24 4 9 62 50 90 63 13 5 41 21 63 34 22 14 47 27 55 30 8 4 26 12 40 20 64 35 133 65 211 90 46 16 98 34 114 41 17 7 59 18 95 24 36 6 74 15 85 20 11 5 27 9 35 9 16 1 52 6 115 16 69 12 98 15 168 19 38 2 71 6 73 9 5 4 397 -2 484 -8z"/>
 </g>

</svg>