<!DOCTYPE svg PUBLIC "-//W3C//DTD SVG 20010904//EN" "http://www.w3.org/TR/2001/REC-SVG-20010904/DTD/svg10.dtd">
<svg version="1.0" xmlns="http://www.w3.org/2000/svg" width="1600px" height="1600px" viewBox="0 0 16000 16000" preserveAspectRatio="xMidYMid meet">
<g id="layer1" fill="#f2e0e3" stroke="none">
 <path d="M11110 14471 c-25 -3 -45 -10 -45 -16 0 -15 84 -18 101 -4 13 11 10 31 -4 27 -4 0 -27 -4 -52 -7z"/>
 <path d="M11674 14469 c-2 -4 3 -12 10 -18 17 -14 111 -11 111 4 0 11 -114 24 -121 14z"/>
 <path d="M10931 14446 c-9 -10 -9 -16 -1 -21 13 -8 42 14 34 26 -8 13 -20 11 -33 -5z"/>
 <path d="M10812 14432 c-31 -9 -33 -26 -4 -30 25 -4 55 15 46 29 -6 10 -9 10 -42 1z"/>
 <path d="M11995 14430 c-7 -12 22 -32 40 -28 9 2 16 8 15 13 -1 13 -48 26 -55 15z"/>
 <path d="M12075 14411 c-7 -12 12 -24 25 -16 11 7 4 25 -10 25 -5 0 -11 -4 -15 -9z"/>
 <path d="M10634 14386 c-18 -14 -18 -15 -1 -21 19 -8 50 12 41 26 -7 13 -17 11 -40 -5z"/>
 <path d="M12176 14391 c-8 -13 21 -34 38 -28 7 3 18 1 24 -5 12 -12 35 -1 26 13 -3 6 -11 8 -18 6 -6 -3 -20 1 -31 9 -22 16 -32 17 -39 5z"/>
 <path d="M4275 14381 c-7 -12 12 -24 25 -16 11 7 4 25 -10 25 -5 0 -11 -4 -15 -9z"/>
 <path d="M4735 14381 c-7 -12 12 -24 25 -16 11 7 4 25 -10 25 -5 0 -11 -4 -15 -9z"/>
 <path d="M10502 14351 c-24 -9 -42 -21 -40 -27 7 -19 104 10 101 31 -2 16 -15 15 -61 -4z"/>
 <path d="M12286 14361 c-8 -12 13 -28 45 -36 42 -10 44 13 3 30 -43 18 -41 17 -48 6z"/>
 <path d="M12395 14320 c-8 -13 41 -44 60 -37 8 4 17 2 20 -3 11 -17 69 -40 78 -31 9 9 -44 45 -68 46 -5 1 -24 9 -42 18 -37 20 -40 20 -48 7z"/>
 <path d="M4171 14306 c-7 -8 -8 -17 -3 -20 6 -3 15 1 21 8 7 8 8 17 3 20 -6 3 -15 -1 -21 -8z"/>
 <path d="M10391 14306 c-9 -10 -9 -16 -1 -21 13 -8 42 14 34 26 -8 13 -20 11 -33 -5z"/>
 <path d="M10309 14271 c-13 -10 -29 -16 -35 -14 -6 2 -16 -3 -23 -11 -18 -21 6 -32 28 -12 10 9 20 13 24 10 9 -10 59 25 52 36 -9 14 -19 12 -46 -9z"/>
 <path d="M4131 14238 c-5 -13 -7 -27 -4 -31 6 -11 33 12 33 29 0 24 -20 26 -29 2z"/>
 <path d="M4886 14242 c-4 -7 -4 -18 1 -24 4 -7 8 -21 8 -30 0 -10 5 -19 10 -20 14 -4 13 50 0 69 -9 12 -14 13 -19 5z"/>
 <path d="M12595 14230 c-5 -9 2 -15 44 -38 26 -14 51 -2 29 14 -26 19 -67 33 -73 24z"/>
 <path d="M10161 14196 c-9 -10 -9 -16 -1 -21 13 -8 42 14 34 26 -8 13 -20 11 -33 -5z"/>
 <path d="M12724 14159 c-7 -13 23 -42 39 -36 16 5 12 20 -10 34 -16 11 -23 11 -29 2z"/>
 <path d="M10052 14128 c-29 -20 -40 -34 -34 -40 12 -12 105 48 97 63 -9 14 -16 11 -63 -23z"/>
 <path d="M12796 14111 c-9 -15 23 -36 35 -24 8 8 5 14 -9 22 -12 6 -23 7 -26 2z"/>
 <path d="M12836 14081 c-9 -14 84 -85 95 -74 7 7 -4 23 -34 47 -47 38 -53 41 -61 27z"/>
 <path d="M9824 13936 c-78 -78 -114 -120 -107 -127 6 -6 49 29 127 107 78 78 113 121 107 127 -7 7 -49 -29 -127 -107z"/>
 <path d="M13105 13830 c-10 -16 46 -73 59 -60 7 7 0 20 -21 41 -21 22 -33 27 -38 19z"/>
 <path d="M13165 13761 c-10 -17 15 -45 29 -31 7 7 5 15 -6 26 -11 11 -18 13 -23 5z"/>
 <path d="M9607 13679 c-16 -22 -14 -39 3 -39 5 0 14 9 21 21 16 31 -4 47 -24 18z"/>
 <path d="M13235 13660 c-9 -15 35 -74 47 -62 11 11 -2 41 -26 61 -10 8 -16 9 -21 1z"/>
 <path d="M9571 13622 c-13 -25 2 -38 19 -16 9 10 10 18 3 25 -8 8 -14 5 -22 -9z"/>
 <path d="M9534 13566 c-12 -19 -14 -30 -6 -38 7 -7 15 -2 28 16 12 19 14 30 6 38 -7 7 -15 2 -28 -16z"/>
 <path d="M13305 13550 c-8 -13 34 -72 46 -65 5 4 2 19 -6 35 -18 34 -31 44 -40 30z"/>
 <path d="M9484 13476 c-12 -19 -14 -30 -6 -38 7 -7 15 -2 28 16 12 19 14 30 6 38 -7 7 -15 2 -28 -16z"/>
 <path d="M13365 13447 c-8 -19 12 -50 26 -41 13 7 11 17 -5 40 -14 18 -15 18 -21 1z"/>
 <path d="M9444 13396 c-12 -19 -14 -30 -6 -38 7 -7 15 -2 28 16 12 19 14 30 6 38 -7 7 -15 2 -28 -16z"/>
 <path d="M13405 13361 c-4 -8 -1 -19 8 -28 19 -20 30 -1 13 22 -10 14 -15 15 -21 6z"/>
 <path d="M9410 13320 c-14 -26 -4 -45 16 -29 16 13 18 35 5 44 -6 3 -15 -4 -21 -15z"/>
 <path d="M13446 13271 c-7 -11 9 -57 23 -65 18 -12 22 13 6 44 -17 32 -21 35 -29 21z"/>
 <path d="M9371 13224 c-12 -27 -18 -51 -13 -56 11 -11 26 7 41 51 18 56 -4 60 -28 5z"/>
 <path d="M13484 13166 c-7 -18 13 -49 26 -41 10 6 1 43 -11 51 -5 3 -12 -2 -15 -10z"/>
 <path d="M9326 13095 c-17 -40 -13 -63 9 -45 18 15 28 61 16 73 -6 6 -15 -3 -25 -28z"/>
 <path d="M13525 13050 c-9 -15 3 -66 20 -80 20 -17 25 2 11 43 -15 44 -22 52 -31 37z"/>
 <path d="M9308 13025 c-3 -24 -6 -32 -17 -58 -6 -16 -8 -33 -5 -38 10 -16 35 12 32 35 -1 12 1 27 6 34 5 8 4 18 -3 25 -6 6 -12 7 -13 2z"/>
 <path d="M13564 12885 c-8 -19 8 -52 22 -47 11 3 6 43 -7 56 -5 6 -11 2 -15 -9z"/>
 <path d="M9255 12806 c-3 -9 -7 -23 -10 -32 -3 -9 -2 -20 1 -25 9 -16 34 11 34 37 0 27 -18 42 -25 20z"/>
 <path d="M13595 12740 c-4 -6 -3 -16 3 -22 6 -6 12 -6 17 2 4 6 3 16 -3 22 -6 6 -12 6 -17 -2z"/>
 <path d="M13607 12694 c-12 -13 -7 -71 6 -83 20 -16 26 -4 20 37 -6 40 -15 56 -26 46z"/>
 <path d="M9225 12620 c-4 -6 -3 -16 3 -22 6 -6 12 -6 17 2 4 6 3 16 -3 22 -6 6 -12 6 -17 -2z"/>
 <path d="M9216 12548 c-8 -25 -14 -97 -8 -102 13 -14 32 20 32 60 0 41 -16 69 -24 42z"/>
 <path d="M13645 12209 c-10 -27 0 -3424 10 -3422 14 4 19 3413 5 3427 -6 6 -11 4 -15 -5z"/>
 <path d="M2505 9331 c-7 -12 12 -24 25 -16 11 7 4 25 -10 25 -5 0 -11 -4 -15 -9z"/>
 <path d="M6505 9331 c-7 -12 12 -24 25 -16 11 7 4 25 -10 25 -5 0 -11 -4 -15 -9z"/>
 <path d="M2411 9266 c-7 -8 -8 -17 -3 -20 6 -3 15 1 21 8 7 8 8 17 3 20 -6 3 -15 -1 -21 -8z"/>
 <path d="M6606 9272 c-3 -6 1 -15 8 -21 8 -7 17 -8 20 -3 3 6 -1 15 -8 21 -8 7 -17 8 -20 3z"/>
 <path d="M6645 9220 c-9 -14 23 -62 35 -55 6 4 4 18 -5 36 -17 32 -21 34 -30 19z"/>
 <path d="M2361 9192 c-13 -25 2 -38 19 -16 9 10 10 18 3 25 -8 8 -14 5 -22 -9z"/>
 <path d="M2358 8764 c-10 -10 21 -66 32 -59 6 4 10 10 10 14 0 15 -35 53 -42 45z"/>
 <path d="M6650 8745 c-9 -11 -10 -19 -3 -26 7 -7 14 -5 23 6 9 11 10 19 3 26 -7 7 -14 5 -23 -6z"/>
 <path d="M9208 8754 c-10 -10 21 -66 32 -59 6 4 10 10 10 14 0 15 -35 53 -42 45z"/>
 <path d="M13566 8661 c-12 -13 -14 -21 -6 -26 13 -8 52 24 44 36 -8 14 -19 11 -38 -10z"/>
 <path d="M2465 8630 c-3 -5 8 -16 24 -25 36 -18 51 -3 19 19 -26 18 -35 20 -43 6z"/>
 <path d="M6541 8627 c-6 -8 -8 -17 -5 -20 10 -9 45 13 39 24 -9 13 -21 11 -34 -4z"/>
 <path d="M9305 8631 c-7 -13 32 -34 46 -26 7 5 6 11 -2 21 -13 16 -35 18 -44 5z"/>
 <path d="M13514 8630 c-27 -11 -38 -27 -24 -35 13 -8 72 24 65 35 -7 12 -13 12 -41 0z"/>
 <path d="M9801 8606 c-9 -10 -9 -16 -1 -21 13 -8 42 14 34 26 -8 13 -20 11 -33 -5z"/>
 <path d="M9412 7648 c-7 -7 -12 -9 -12 -5 0 4 -14 0 -31 -9 -22 -11 -28 -19 -21 -26 8 -8 19 -6 37 6 22 15 57 17 260 17 203 0 238 -2 260 -17 18 -12 29 -14 37 -6 7 7 1 15 -21 26 -17 9 -31 13 -31 9 0 -4 -5 -2 -12 5 -9 9 -74 12 -233 12 -159 0 -224 -3 -233 -12z"/>
 <path d="M13096 7647 c-11 -8 -15 -16 -10 -18 5 -2 116 -2 247 1 313 7 319 24 9 28 -180 2 -232 -1 -246 -11z"/>
 <path d="M13607 7633 c-2 -5 20 -32 49 -60 62 -61 87 -53 28 9 -43 44 -71 62 -77 51z"/>
 <path d="M4325 7591 c-7 -12 12 -24 25 -16 11 7 4 25 -10 25 -5 0 -11 -4 -15 -9z"/>
 <path d="M4155 7580 c-8 -13 20 -24 41 -16 20 8 9 26 -16 26 -10 0 -22 -5 -25 -10z"/>
 <path d="M4665 7580 c-8 -13 20 -24 41 -16 20 8 9 26 -16 26 -10 0 -22 -5 -25 -10z"/>
 <path d="M9285 7564 c-9 -15 -18 -32 -20 -38 -1 -6 -7 -22 -12 -36 -6 -14 -9 -29 -6 -33 8 -13 34 15 31 32 -1 9 8 31 21 49 15 22 20 37 14 43 -7 7 -16 1 -28 -17z"/>
 <path d="M4035 7571 c-7 -13 17 -24 40 -19 9 1 16 8 16 13 0 14 -48 19 -56 6z"/>
 <path d="M4775 7570 c-8 -13 20 -24 41 -16 20 8 9 26 -16 26 -10 0 -22 -5 -25 -10z"/>
 <path d="M3925 7551 c-7 -12 12 -24 25 -16 11 7 4 25 -10 25 -5 0 -11 -4 -15 -9z"/>
 <path d="M3875 7541 c-7 -12 12 -24 25 -16 11 7 4 25 -10 25 -5 0 -11 -4 -15 -9z"/>
 <path d="M4965 7541 c-7 -12 12 -24 25 -16 11 7 4 25 -10 25 -5 0 -11 -4 -15 -9z"/>
 <path d="M12966 7522 c-20 -39 -3 -52 20 -17 12 18 14 29 6 37 -7 7 -15 1 -26 -20z"/>
 <path d="M3815 7531 c-7 -12 12 -24 25 -16 11 7 4 25 -10 25 -5 0 -11 -4 -15 -9z"/>
 <path d="M5015 7530 c-8 -12 20 -24 35 -15 6 3 8 11 5 16 -8 12 -32 12 -40 -1z"/>
 <path d="M5086 7521 c-7 -11 22 -36 31 -28 3 4 12 2 19 -3 6 -6 16 -10 20 -9 5 1 22 -3 38 -10 36 -14 59 1 27 18 -12 7 -27 11 -34 9 -6 -1 -22 3 -34 10 -13 7 -23 10 -23 7 0 -3 -9 -1 -19 5 -11 6 -22 6 -25 1z"/>
 <path d="M10005 7521 c-4 -8 -1 -19 8 -28 19 -20 30 -1 13 22 -10 14 -15 15 -21 6z"/>
 <path d="M3715 7506 c-14 -10 -15 -15 -6 -21 8 -4 19 -1 28 8 20 19 1 30 -22 13z"/>
 <path d="M13715 7500 c-4 -6 -3 -16 3 -22 6 -6 12 -6 17 2 4 6 3 16 -3 22 -6 6 -12 6 -17 -2z"/>
 <path d="M3657 7493 c-4 -4 -17 -8 -28 -10 -11 -2 -30 -9 -42 -15 -12 -7 -27 -11 -34 -10 -15 3 -26 -15 -13 -23 5 -3 15 -3 22 1 7 4 23 9 36 10 13 2 31 9 39 16 9 7 21 13 27 13 14 0 21 18 9 22 -5 2 -12 0 -16 -4z"/>
 <path d="M5256 7471 c-9 -15 23 -36 35 -24 8 8 5 14 -9 22 -12 6 -23 7 -26 2z"/>
 <path d="M5316 7451 c-9 -15 23 -36 35 -24 8 8 5 14 -9 22 -12 6 -23 7 -26 2z"/>
 <path d="M3475 7426 c-14 -10 -15 -15 -6 -21 8 -4 19 -1 28 8 20 19 1 30 -22 13z"/>
 <path d="M3397 7394 c-15 -8 -25 -19 -22 -24 9 -14 20 -12 46 8 29 24 12 35 -24 16z"/>
 <path d="M5456 7391 c-9 -15 23 -36 35 -24 8 8 5 14 -9 22 -12 6 -23 7 -26 2z"/>
 <path d="M3317 7354 c-15 -8 -25 -19 -22 -24 9 -14 20 -12 46 8 29 24 12 35 -24 16z"/>
 <path d="M5515 7360 c-9 -15 44 -45 57 -32 7 7 1 15 -20 26 -18 9 -33 12 -37 6z"/>
 <path d="M3245 7316 c-14 -10 -15 -15 -6 -21 8 -4 19 -1 28 8 20 19 1 30 -22 13z"/>
 <path d="M5605 7310 c-8 -13 41 -43 56 -34 8 5 4 13 -12 25 -27 21 -35 23 -44 9z"/>
 <path d="M3151 7261 c-16 -12 -20 -20 -12 -25 15 -9 64 21 56 34 -9 14 -17 12 -44 -9z"/>
 <path d="M5675 7271 c-7 -13 84 -73 97 -65 7 4 1 14 -13 26 -39 31 -77 49 -84 39z"/>
 <path d="M3031 7179 c-28 -21 -39 -35 -32 -42 12 -12 94 50 85 64 -7 12 -4 13 -53 -22z"/>
 <path d="M5796 7191 c-9 -15 23 -36 35 -24 8 8 5 14 -9 22 -12 6 -23 7 -26 2z"/>
 <path d="M5846 7151 c-8 -12 62 -64 75 -55 6 4 -3 17 -23 35 -36 31 -44 34 -52 20z"/>
 <path d="M5946 7071 c-9 -15 23 -36 35 -24 8 8 5 14 -9 22 -12 6 -23 7 -26 2z"/>
 <path d="M2856 7031 c-10 -11 -13 -22 -8 -25 5 -3 17 3 26 13 10 11 13 22 8 25 -5 3 -17 -3 -26 -13z"/>
 <path d="M2811 6986 c-7 -8 -8 -17 -3 -20 6 -3 15 1 21 8 7 8 8 17 3 20 -6 3 -15 -1 -21 -8z"/>
 <path d="M2771 6946 c-7 -8 -8 -17 -3 -20 6 -3 15 1 21 8 7 8 8 17 3 20 -6 3 -15 -1 -21 -8z"/>
 <path d="M2731 6906 c-7 -8 -8 -17 -3 -20 6 -3 15 1 21 8 7 8 8 17 3 20 -6 3 -15 -1 -21 -8z"/>
 <path d="M6195 6820 c-4 -7 1 -20 13 -32 26 -26 36 -9 13 21 -13 17 -20 20 -26 11z"/>
 <path d="M2598 6748 c-35 -47 -39 -56 -30 -62 14 -8 76 74 65 85 -6 6 -19 -2 -35 -23z"/>
 <path d="M6286 6701 c-9 -14 52 -104 65 -96 9 6 -6 39 -41 85 -11 15 -20 19 -24 11z"/>
 <path d="M2534 6658 c-4 -7 -14 -23 -21 -35 -23 -34 3 -37 27 -2 15 20 19 34 12 41 -6 6 -12 5 -18 -4z"/>
 <path d="M6365 6570 c-4 -7 1 -20 13 -32 26 -26 36 -9 13 21 -13 17 -20 20 -26 11z"/>
 <path d="M2450 6515 c-9 -11 -10 -19 -3 -26 7 -7 14 -5 23 6 9 11 10 19 3 26 -7 7 -14 5 -23 -6z"/>
 <path d="M6405 6500 c-9 -14 23 -62 35 -55 6 4 4 18 -5 36 -17 32 -21 34 -30 19z"/>
 <path d="M2406 6432 c-20 -39 -3 -52 20 -17 12 18 14 29 6 37 -7 7 -15 1 -26 -20z"/>
 <path d="M6445 6420 c-9 -14 23 -62 35 -55 6 4 4 18 -5 36 -17 32 -21 34 -30 19z"/>
 <path d="M2370 6355 c-9 -11 -10 -19 -3 -26 7 -7 14 -5 23 6 9 11 10 19 3 26 -7 7 -14 5 -23 -6z"/>
 <path d="M6484 6337 c-7 -20 22 -70 36 -62 5 3 5 17 -2 33 -17 40 -26 48 -34 29z"/>
 <path d="M2336 6279 c-15 -35 -12 -54 5 -43 18 11 31 56 20 67 -7 7 -15 -1 -25 -24z"/>
 <path d="M6525 6240 c-4 -6 0 -19 9 -29 9 -10 13 -21 10 -24 -9 -9 16 -38 27 -31 5 3 4 15 -3 27 -7 12 -13 28 -14 36 -4 22 -21 34 -29 21z"/>
 <path d="M2300 6184 c-6 -15 -12 -34 -13 -43 -2 -9 -9 -26 -15 -39 -7 -12 -12 -28 -10 -35 1 -6 -3 -22 -10 -34 -7 -12 -8 -24 -3 -27 10 -6 33 17 30 30 -1 5 3 22 10 38 6 16 9 31 6 34 -3 3 1 12 9 21 18 22 28 68 16 76 -6 3 -15 -6 -20 -21z"/>
 <path d="M6564 6126 c-4 -10 0 -24 10 -35 9 -10 14 -20 11 -23 -3 -3 0 -18 6 -34 7 -16 11 -34 10 -41 -1 -6 3 -14 8 -18 6 -3 8 -12 5 -19 -7 -17 12 -30 21 -16 4 6 2 17 -4 24 -6 7 -8 16 -4 19 3 4 1 13 -5 20 -7 8 -9 16 -7 19 3 3 0 18 -6 34 -7 16 -14 38 -16 49 -5 30 -21 41 -29 21z"/>
 <path d="M2225 5940 c-4 -6 -3 -16 3 -22 6 -6 12 -6 17 2 4 6 3 16 -3 22 -6 6 -12 6 -17 -2z"/>
 <path d="M2211 5878 c-5 -13 -7 -27 -4 -31 6 -11 33 12 33 29 0 24 -20 26 -29 2z"/>
 <path d="M6634 5886 c-4 -10 -2 -22 4 -28 8 -8 13 -7 18 6 4 10 2 22 -4 28 -8 8 -13 7 -18 -6z"/>
 <path d="M6645 5831 c-4 -8 -1 -19 8 -28 19 -20 30 -1 13 22 -10 14 -15 15 -21 6z"/>
 <path d="M2184 5756 c-8 -21 3 -49 16 -41 5 3 10 15 10 25 0 25 -18 36 -26 16z"/>
 <path d="M2171 5668 c-5 -13 -7 -27 -4 -31 6 -11 33 12 33 29 0 24 -20 26 -29 2z"/>
 <path d="M6674 5676 c-8 -21 3 -49 16 -41 5 3 10 15 10 25 0 25 -18 36 -26 16z"/>
 <path d="M6684 5575 c-8 -19 8 -52 22 -47 11 3 6 43 -7 56 -5 6 -11 2 -15 -9z"/>
 <path d="M6695 5480 c-4 -6 -3 -16 3 -22 6 -6 12 -6 17 2 4 6 3 16 -3 22 -6 6 -12 6 -17 -2z"/>
 <path d="M2145 5418 c-9 -24 -1 -143 10 -143 13 0 19 135 6 148 -7 7 -12 5 -16 -5z"/>
 <path d="M6715 5059 c-10 -26 -1 -269 10 -272 14 -3 19 263 6 276 -7 7 -12 5 -16 -4z"/>
 <path d="M6715 4439 c-10 -26 -1 -269 10 -272 14 -3 19 263 6 276 -7 7 -12 5 -16 -4z"/>
 <path d="M10030 4355 c-7 -8 -10 -15 -6 -15 3 0 665 0 1471 0 806 0 1468 0 1471 0 4 0 1 7 -6 15 -11 13 -186 15 -1465 15 -1279 0 -1454 -2 -1465 -15z"/>
 <path d="M2145 3938 c-10 -24 -1 -163 10 -163 13 0 19 155 6 168 -7 7 -12 5 -16 -5z"/>
 <path d="M6695 3750 c-4 -6 -3 -16 3 -22 6 -6 12 -6 17 2 4 6 3 16 -3 22 -6 6 -12 6 -17 -2z"/>
 <path d="M6690 3665 c-13 -15 -10 -50 4 -50 12 0 27 53 16 60 -4 3 -13 -2 -20 -10z"/>
 <path d="M6674 3556 c-8 -21 3 -49 16 -41 5 3 10 15 10 25 0 25 -18 36 -26 16z"/>
 <path d="M2175 3540 c-4 -6 -3 -16 3 -22 6 -6 12 -6 17 2 4 6 3 16 -3 22 -6 6 -12 6 -17 -2z"/>
 <path d="M2184 3466 c-4 -10 -2 -22 4 -28 8 -8 13 -7 18 6 4 10 2 22 -4 28 -8 8 -13 7 -18 -6z"/>
 <path d="M6650 3394 c-9 -10 -10 -18 -3 -25 8 -8 14 -5 22 9 13 25 -2 38 -19 16z"/>
 <path d="M2207 3353 c-8 -13 12 -55 23 -48 5 3 10 12 10 19 0 17 -27 40 -33 29z"/>
 <path d="M6634 3336 c-4 -10 -2 -22 4 -28 8 -8 13 -7 18 6 4 10 2 22 -4 28 -8 8 -13 7 -18 -6z"/>
 <path d="M2225 3280 c-4 -6 -3 -16 3 -22 6 -6 12 -6 17 2 4 6 3 16 -3 22 -6 6 -12 6 -17 -2z"/>
 <path d="M6615 3260 c-4 -6 -3 -16 3 -22 6 -6 12 -6 17 2 4 6 3 16 -3 22 -6 6 -12 6 -17 -2z"/>
 <path d="M2247 3194 c-3 -4 -1 -16 5 -28 7 -11 11 -24 10 -28 -1 -4 3 -20 9 -35 6 -15 11 -30 11 -33 0 -3 4 -13 10 -24 7 -13 13 -15 21 -7 7 7 6 16 -6 29 -9 10 -15 21 -12 24 3 3 0 18 -6 34 -7 16 -11 34 -10 40 2 14 -24 36 -32 28z"/>
 <path d="M6590 3165 c-6 -15 -8 -30 -5 -33 3 -3 -1 -12 -8 -21 -28 -33 -42 -122 -18 -106 6 3 28 67 37 105 0 3 6 18 13 34 8 20 8 33 2 39 -7 7 -14 1 -21 -18z"/>
 <path d="M2317 2994 c-3 -4 -2 -16 4 -26 8 -15 14 -17 22 -9 8 8 7 15 -4 26 -8 9 -18 13 -22 9z"/>
 <path d="M2345 2920 c-4 -6 -3 -16 3 -22 6 -6 12 -6 17 2 4 6 3 16 -3 22 -6 6 -12 6 -17 -2z"/>
 <path d="M6490 2894 c-9 -10 -10 -18 -3 -25 8 -8 14 -5 22 9 13 25 -2 38 -19 16z"/>
 <path d="M2367 2874 c-3 -4 -2 -16 4 -26 8 -15 14 -17 22 -9 8 8 7 15 -4 26 -8 9 -18 13 -22 9z"/>
 <path d="M6454 2826 c-11 -18 -14 -30 -7 -37 7 -7 16 -1 27 17 12 17 15 29 8 36 -7 7 -16 1 -28 -16z"/>
 <path d="M2407 2794 c-3 -4 -2 -16 4 -26 8 -15 14 -17 22 -9 8 8 7 15 -4 26 -8 9 -18 13 -22 9z"/>
 <path d="M6414 2746 c-11 -18 -14 -30 -7 -37 7 -7 16 -1 27 17 12 17 15 29 8 36 -7 7 -16 1 -28 -16z"/>
 <path d="M2467 2684 c-3 -4 -2 -16 4 -26 8 -15 14 -17 22 -9 8 8 7 15 -4 26 -8 9 -18 13 -22 9z"/>
 <path d="M6364 2656 c-11 -18 -14 -30 -7 -37 7 -7 16 -1 27 17 12 17 15 29 8 36 -7 7 -16 1 -28 -16z"/>
 <path d="M2516 2591 c-7 -10 28 -43 37 -35 8 8 -11 44 -23 44 -5 0 -11 -4 -14 -9z"/>
 <path d="M6286 2535 c-25 -38 -8 -53 19 -19 22 27 24 44 6 44 -5 0 -16 -11 -25 -25z"/>
 <path d="M2606 2472 c-6 -10 51 -86 69 -91 21 -6 12 16 -24 58 -21 24 -41 39 -45 33z"/>
 <path d="M6088 2297 c-70 -71 -125 -134 -121 -140 8 -13 234 215 228 231 -3 7 -1 11 4 8 5 -3 14 1 20 8 7 8 8 16 4 19 -4 2 -65 -54 -135 -126z"/>
 <path d="M2906 2152 c-7 -11 124 -113 135 -106 15 9 -12 36 -28 30 -8 -3 -12 -2 -9 3 3 5 -14 25 -38 45 -47 38 -52 41 -60 28z"/>
 <path d="M5931 2146 c-7 -8 -8 -17 -3 -20 6 -3 15 1 21 8 7 8 8 17 3 20 -6 3 -15 -1 -21 -8z"/>
 <path d="M5881 2107 c-6 -8 -8 -17 -5 -20 10 -9 45 13 39 24 -9 13 -21 11 -34 -4z"/>
 <path d="M5791 2041 c-19 -15 -30 -31 -24 -34 13 -8 85 41 78 54 -9 14 -17 11 -54 -20z"/>
 <path d="M9247 2053 c-4 -3 0 -17 8 -30 9 -13 13 -23 10 -23 -3 0 -1 -9 6 -21 8 -15 14 -18 22 -10 7 7 6 16 -5 28 -8 10 -14 23 -11 29 5 13 -21 37 -30 27z"/>
 <path d="M3065 2031 c-7 -12 35 -42 47 -35 5 3 2 15 -8 25 -19 21 -30 24 -39 10z"/>
 <path d="M13701 2000 c-21 -41 -14 -62 11 -32 21 23 31 59 19 66 -5 3 -18 -12 -30 -34z"/>
 <path d="M10010 2014 c-9 -10 -10 -18 -3 -25 8 -8 14 -5 22 9 13 25 -2 38 -19 16z"/>
 <path d="M12967 2003 c-14 -22 84 -130 105 -117 13 8 -13 36 -28 30 -7 -3 -11 0 -9 7 6 16 -60 93 -68 80z"/>
 <path d="M5694 1977 c-15 -13 -23 -26 -18 -30 13 -8 76 32 68 44 -8 14 -21 11 -50 -14z"/>
 <path d="M3195 1951 c-7 -12 35 -42 47 -35 5 3 2 15 -8 25 -19 21 -30 24 -39 10z"/>
 <path d="M5571 1907 c-6 -8 -8 -17 -5 -20 10 -9 45 13 39 24 -9 13 -21 11 -34 -4z"/>
 <path d="M9336 1911 c-8 -12 55 -52 68 -44 5 4 -4 17 -20 30 -32 25 -40 28 -48 14z"/>
 <path d="M9921 1907 c-6 -8 -8 -17 -5 -20 10 -9 45 13 39 24 -9 13 -21 11 -34 -4z"/>
 <path d="M13615 1907 c-28 -21 -9 -40 20 -21 14 9 22 20 19 25 -7 12 -17 11 -39 -4z"/>
 <path d="M3275 1900 c-3 -5 21 -23 54 -40 33 -16 62 -26 65 -21 7 11 -8 24 -63 50 -52 24 -48 24 -56 11z"/>
 <path d="M13095 1881 c-7 -12 12 -24 25 -16 11 7 4 25 -10 25 -5 0 -11 -4 -15 -9z"/>
 <path d="M5491 1867 c-6 -8 -8 -17 -5 -20 10 -9 45 13 39 24 -9 13 -21 11 -34 -4z"/>
 <path d="M3425 1831 c-6 -11 29 -33 39 -24 7 7 -12 33 -25 33 -4 0 -10 -4 -14 -9z"/>
 <path d="M5354 1805 c-12 -8 -24 -12 -27 -8 -9 8 -38 -18 -31 -28 3 -5 15 -4 27 3 12 7 26 11 30 10 14 -4 48 19 42 29 -8 13 -17 11 -41 -6z"/>
 <path d="M3495 1801 c-3 -6 10 -17 30 -25 49 -21 59 -23 64 -11 7 18 -83 53 -94 36z"/>
 <path d="M5215 1763 c-26 -7 -46 -23 -40 -34 7 -10 81 15 78 27 -2 11 -13 13 -38 7z"/>
 <path d="M3645 1751 c-3 -6 4 -15 15 -21 11 -6 20 -8 20 -5 0 3 9 1 19 -5 11 -6 22 -6 25 -1 8 12 -20 34 -33 27 -5 -4 -12 -2 -16 4 -8 13 -22 13 -30 1z"/>
 <path d="M5126 1731 c-4 -6 -13 -8 -20 -5 -17 6 -31 -12 -16 -21 5 -3 16 -3 23 2 6 4 17 8 22 8 14 0 19 19 7 23 -6 2 -13 -1 -16 -7z"/>
 <path d="M3745 1720 c-7 -11 22 -26 32 -16 3 3 12 1 19 -5 7 -6 18 -8 24 -4 14 9 1 28 -16 21 -7 -3 -16 -1 -19 4 -8 13 -32 13 -40 0z"/>
 <path d="M5031 1707 c-6 -8 -8 -17 -5 -20 10 -9 45 13 39 24 -9 13 -21 11 -34 -4z"/>
 <path d="M3845 1701 c-6 -11 13 -26 22 -17 3 3 12 1 19 -5 7 -6 18 -8 24 -4 14 9 1 28 -16 21 -7 -3 -16 -1 -19 4 -8 13 -22 13 -30 1z"/>
 <path d="M3935 1680 c-8 -12 20 -24 35 -15 6 3 8 11 5 16 -8 12 -32 12 -40 -1z"/>
 <path d="M4895 1680 c-8 -12 20 -24 35 -15 6 3 8 11 5 16 -8 12 -32 12 -40 -1z"/>
 <path d="M4015 1670 c-8 -12 20 -24 35 -15 6 3 8 11 5 16 -8 12 -32 12 -40 -1z"/>
 <path d="M4815 1670 c-8 -12 20 -24 35 -15 6 3 8 11 5 16 -8 12 -32 12 -40 -1z"/>
 <path d="M4355 1640 c-3 -5 0 -13 8 -16 23 -9 142 0 142 11 0 14 -142 19 -150 5z"/>
 </g>
<g id="layer2" fill="#ffffff" stroke="none">
 <path d="M0 8000 l0 -8000 8000 0 8000 0 0 8000 0 8000 -8000 0 -8000 0 0 -8000z m15190 0 l0 -7190 -7190 0 -7190 0 0 7190 0 7190 7190 0 7190 0 0 -7190z"/>
 <path d="M11250 14483 c-41 -2 -79 -8 -84 -13 -6 -6 -54 -10 -107 -10 -54 0 -101 -4 -104 -10 -3 -5 -19 -7 -34 -4 -16 4 -43 -1 -62 -9 -19 -8 -65 -17 -102 -20 -43 -3 -75 -11 -86 -21 -10 -9 -32 -16 -49 -16 -18 0 -49 -9 -69 -20 -20 -10 -56 -22 -79 -26 -24 -3 -49 -12 -55 -20 -6 -8 -18 -14 -26 -14 -8 0 -33 -10 -56 -22 -70 -36 -78 -39 -86 -33 -5 2 -14 -2 -21 -10 -7 -8 -19 -15 -27 -15 -7 0 -16 -6 -19 -14 -3 -8 -16 -17 -29 -20 -13 -3 -39 -20 -57 -36 -18 -16 -39 -29 -48 -27 -8 1 -14 -4 -13 -10 2 -7 -2 -13 -9 -13 -14 0 -88 -50 -88 -59 0 -8 -209 -219 -221 -223 -13 -5 -99 -121 -99 -134 0 -7 -9 -18 -20 -24 -11 -6 -20 -19 -20 -29 0 -11 -7 -21 -15 -25 -8 -3 -15 -14 -15 -24 0 -11 -11 -31 -25 -46 -14 -15 -25 -35 -25 -45 0 -10 -9 -30 -20 -44 -11 -14 -20 -32 -20 -40 0 -8 -9 -26 -20 -40 -11 -14 -20 -34 -20 -45 0 -11 -6 -22 -14 -25 -7 -3 -16 -23 -19 -44 -4 -21 -14 -51 -22 -67 -9 -17 -20 -50 -26 -75 -5 -25 -15 -52 -22 -59 -6 -8 -13 -35 -15 -60 -1 -25 -10 -54 -18 -64 -10 -10 -18 -43 -21 -85 -3 -37 -12 -83 -20 -101 -9 -21 -17 -79 -20 -155 -3 -69 -10 -128 -17 -136 -8 -10 -12 -493 -14 -1848 -2 -1828 -2 -1834 18 -1860 11 -14 20 -32 20 -41 0 -19 67 -82 87 -82 9 0 22 -8 29 -17 11 -16 36 -18 229 -21 119 -2 222 1 228 5 7 4 836 6 1842 3 1425 -5 1833 -3 1845 6 8 7 27 16 43 19 15 4 32 16 38 26 5 11 16 19 24 19 8 0 26 20 40 43 l25 44 0 1857 c0 1809 -3 1976 -30 2011 -4 6 -10 49 -13 97 -3 50 -12 100 -21 119 -9 18 -16 52 -16 77 0 27 -6 52 -15 62 -9 10 -20 46 -26 81 -7 35 -18 71 -25 80 -8 8 -14 23 -14 32 0 10 -9 34 -20 54 -11 21 -20 47 -20 59 0 12 -8 32 -19 45 -10 13 -22 39 -26 57 -4 18 -13 36 -21 39 -8 3 -14 13 -14 22 0 9 -14 36 -31 59 -17 23 -28 45 -25 50 3 4 -13 28 -35 53 -21 24 -39 51 -39 60 0 8 -16 32 -35 53 -19 21 -35 42 -35 45 0 4 -14 17 -30 30 -17 12 -29 27 -28 34 4 15 -177 197 -195 197 -7 0 -32 18 -55 40 -22 22 -46 40 -52 40 -5 0 -10 5 -10 11 0 5 -15 16 -34 24 -18 8 -36 21 -39 30 -4 8 -13 15 -20 15 -8 0 -20 7 -27 15 -7 8 -16 12 -21 10 -9 -6 -44 12 -71 38 -10 9 -29 17 -42 17 -13 0 -26 7 -30 15 -3 8 -12 12 -20 9 -8 -3 -17 -1 -21 5 -3 6 -16 11 -28 11 -13 0 -33 7 -46 16 -13 9 -42 21 -64 26 -23 5 -48 14 -55 21 -8 6 -32 13 -53 14 -22 2 -50 10 -64 19 -15 9 -54 18 -92 21 -37 2 -72 8 -78 12 -21 17 -103 29 -205 30 -57 1 -109 6 -115 11 -12 10 -323 20 -435 13z"/>
 <path d="M4305 14390 c-3 -5 -18 -10 -32 -10 -35 0 -133 -98 -133 -134 0 -14 -4 -28 -10 -31 -7 -4 -10 -827 -10 -2436 l0 -2429 -789 0 c-516 0 -792 -3 -796 -10 -3 -5 -18 -10 -32 -10 -30 0 -149 -112 -138 -130 4 -6 1 -18 -7 -27 -10 -12 -13 -62 -13 -202 0 -176 1 -189 24 -236 32 -67 56 -92 117 -121 l51 -24 1986 0 1985 0 50 25 c55 27 102 76 102 105 0 9 7 23 15 30 22 18 22 405 0 434 -8 11 -15 27 -15 36 0 24 -98 110 -125 110 -13 0 -27 5 -30 10 -4 7 -280 10 -796 10 l-789 0 -1 2413 c-1 1326 -2 2419 -3 2429 -1 9 -4 20 -8 24 -5 4 -8 19 -8 33 0 34 -99 131 -134 131 -14 0 -28 5 -31 10 -4 6 -87 10 -215 10 -128 0 -211 -4 -215 -10z"/>
 <path d="M9357 7623 c-26 -13 -51 -32 -54 -41 -3 -9 -16 -30 -27 -47 -11 -16 -19 -37 -18 -46 2 -10 -2 -20 -8 -24 -7 -4 -10 -832 -10 -2698 0 -2731 0 -2741 33 -2773 4 -4 7 -15 7 -24 0 -25 46 -62 130 -107 36 -19 420 -18 475 1 21 8 41 19 43 25 2 6 10 11 17 11 17 0 75 70 75 90 0 9 6 22 13 28 9 10 12 258 12 1172 l0 1160 1450 0 1450 0 0 -1158 0 -1157 28 -47 c16 -27 33 -48 38 -48 5 0 9 -7 9 -15 0 -9 8 -19 18 -22 9 -4 22 -12 27 -19 19 -23 72 -28 297 -29 221 0 227 1 250 23 14 12 29 22 34 22 17 0 49 42 77 102 l27 57 -3 2703 c-2 1487 -7 2717 -11 2733 -5 17 -36 57 -73 93 l-65 62 -233 0 c-128 0 -247 -3 -264 -6 -37 -8 -121 -79 -121 -103 0 -9 -8 -28 -17 -41 -17 -23 -18 -100 -21 -1212 l-2 -1188 -1445 0 -1445 0 -2 1190 c-2 935 -6 1192 -15 1202 -7 6 -13 20 -13 30 0 26 -56 84 -104 107 -39 20 -59 21 -277 20 -226 -2 -236 -3 -282 -26z"/>
 <path d="M4237 7593 c-4 -3 -35 -8 -69 -9 -76 -4 -263 -28 -263 -34 0 -1 -11 -4 -25 -6 -65 -8 -133 -24 -145 -34 -7 -6 -17 -10 -21 -9 -12 3 -67 -12 -79 -22 -6 -4 -33 -13 -60 -20 -28 -6 -60 -18 -72 -25 -12 -8 -30 -14 -39 -14 -9 0 -27 -9 -41 -20 -14 -11 -32 -20 -40 -20 -8 0 -26 -9 -40 -20 -14 -11 -34 -20 -44 -20 -10 0 -21 -4 -24 -10 -3 -5 -26 -18 -50 -29 -25 -11 -45 -24 -45 -30 0 -5 -15 -14 -34 -21 -18 -6 -53 -29 -77 -51 -24 -22 -60 -48 -79 -57 -46 -22 -347 -322 -365 -364 -8 -18 -30 -50 -49 -71 -20 -21 -36 -43 -36 -50 0 -7 -16 -32 -35 -56 -20 -25 -38 -56 -42 -69 -3 -14 -14 -33 -24 -43 -11 -11 -19 -27 -19 -38 0 -10 -9 -30 -20 -44 -11 -14 -20 -34 -20 -45 0 -11 -7 -25 -15 -32 -8 -7 -15 -20 -15 -29 0 -9 -9 -32 -19 -52 -11 -20 -23 -53 -26 -73 -4 -20 -11 -39 -16 -42 -5 -3 -9 -11 -9 -19 0 -8 -5 -26 -12 -42 -6 -15 -10 -32 -9 -37 1 -4 -3 -14 -9 -21 -11 -13 -31 -97 -31 -130 0 -10 -4 -24 -10 -31 -5 -6 -14 -43 -19 -80 -18 -119 -19 -128 -29 -189 -18 -110 -25 -394 -25 -975 0 -592 7 -873 25 -995 6 -38 12 -81 14 -95 17 -115 27 -165 35 -175 5 -6 9 -20 9 -30 0 -33 20 -117 31 -130 6 -7 10 -17 9 -21 -1 -5 3 -22 9 -37 7 -16 12 -34 12 -42 0 -8 5 -17 10 -20 6 -3 10 -19 10 -34 0 -16 7 -34 15 -41 8 -7 15 -23 15 -36 0 -12 5 -26 10 -29 6 -3 10 -14 10 -24 0 -10 7 -24 15 -31 8 -7 15 -20 15 -30 0 -9 8 -28 18 -41 11 -13 22 -36 25 -51 4 -14 18 -40 32 -56 14 -17 25 -36 25 -44 0 -7 12 -29 28 -48 15 -19 34 -48 42 -64 8 -16 39 -54 67 -85 29 -31 53 -62 53 -69 0 -17 227 -242 243 -242 7 0 32 -18 55 -40 22 -22 46 -40 52 -40 5 0 10 -5 10 -11 0 -5 15 -17 33 -25 17 -8 51 -30 75 -49 24 -19 52 -35 62 -35 9 0 23 -7 30 -15 6 -8 55 -35 108 -60 54 -26 105 -51 116 -57 10 -5 40 -16 66 -24 27 -8 61 -21 77 -29 15 -8 38 -15 50 -15 12 0 24 -4 28 -10 3 -5 12 -7 19 -4 8 3 17 1 21 -5 3 -6 19 -11 35 -11 16 0 31 -4 35 -10 3 -5 12 -7 19 -4 8 3 17 0 21 -6 4 -6 15 -8 25 -5 10 3 21 1 25 -5 3 -6 9 -8 13 -6 4 2 27 0 52 -6 25 -5 61 -11 80 -13 19 -3 69 -9 110 -15 100 -14 516 -14 610 0 41 7 89 13 105 15 69 8 171 26 185 32 8 4 22 8 30 9 37 7 106 26 121 34 9 5 34 12 55 15 22 4 50 14 62 22 13 8 26 12 29 9 4 -3 11 -2 17 3 6 5 38 18 70 30 32 11 66 27 75 35 9 7 31 17 49 21 18 4 36 13 38 20 3 7 18 15 33 18 15 3 47 22 70 41 24 20 49 36 56 36 8 0 31 16 52 35 21 19 43 35 49 35 6 0 23 11 38 25 15 14 30 25 34 25 15 0 370 369 377 391 4 13 21 39 38 58 16 19 36 50 43 68 8 18 23 42 34 53 11 11 20 29 20 40 0 11 9 28 20 37 11 10 20 27 20 39 0 12 9 33 20 47 11 14 20 31 20 38 0 7 6 20 14 28 8 9 26 54 41 101 15 47 30 94 35 105 25 62 44 122 43 137 -1 10 2 20 8 23 5 4 9 21 9 40 0 19 5 37 11 40 6 4 8 14 5 22 -4 9 -2 21 3 27 12 14 33 169 45 316 1 25 6 83 11 129 18 200 10 1474 -11 1656 -2 22 -6 60 -9 85 -11 113 -27 215 -36 226 -5 6 -7 18 -3 27 3 8 1 18 -5 22 -6 3 -11 21 -11 40 0 19 -5 37 -11 40 -6 4 -8 13 -5 21 3 7 2 16 -3 18 -4 3 -14 30 -21 61 -7 31 -17 58 -22 61 -4 3 -8 16 -8 30 0 13 -4 33 -10 44 -5 11 -14 29 -20 40 -5 11 -10 27 -10 36 0 9 -9 27 -20 41 -11 14 -20 35 -20 45 0 11 -9 31 -20 45 -11 14 -20 32 -20 40 0 8 -9 26 -20 40 -11 14 -20 33 -20 43 0 9 -9 25 -20 35 -11 10 -20 26 -20 36 0 10 -13 32 -30 50 -16 18 -38 51 -49 74 -10 22 -35 57 -55 77 -20 20 -36 41 -36 47 0 13 -219 241 -232 241 -6 0 -19 11 -30 25 -11 14 -25 25 -32 25 -7 0 -28 16 -47 35 -19 19 -40 35 -46 35 -7 0 -13 5 -13 10 0 6 -12 16 -27 23 -38 17 -86 49 -96 64 -4 7 -16 13 -26 13 -10 0 -30 11 -45 25 -15 14 -35 25 -45 25 -10 0 -30 9 -44 20 -14 11 -31 20 -38 20 -7 0 -20 6 -28 14 -9 7 -41 21 -71 32 -30 10 -59 22 -65 26 -5 4 -18 8 -30 8 -11 0 -29 7 -39 15 -10 8 -22 12 -27 10 -4 -3 -20 0 -36 7 -15 6 -33 10 -40 9 -6 -1 -14 3 -18 8 -3 6 -12 8 -19 5 -8 -3 -17 -1 -21 5 -3 6 -21 11 -40 11 -19 0 -37 5 -40 11 -4 6 -14 8 -22 5 -9 -4 -21 -2 -27 4 -11 8 -76 17 -256 36 -78 8 -467 14 -473 7z"/>
 </g>
<g id="layer3" fill="#9e1b35" stroke="none">
 <path d="M795 15198 c-3 -7 -4 -3251 -3 -7208 l3 -7195 7205 0 7205 0 0 7205 0 7205 -7203 3 c-5757 2 -7204 0 -7207 -10z m10955 -749 c52 -6 113 -12 135 -13 46 -3 195 -31 275 -53 30 -8 72 -18 92 -22 20 -5 63 -18 95 -30 32 -13 76 -30 98 -38 42 -16 226 -105 260 -126 208 -126 450 -367 572 -566 183 -302 280 -585 345 -1006 l23 -150 0 -1845 0 -1845 -28 -47 c-17 -30 -44 -57 -72 -74 l-45 -26 -2068 0 c-2286 0 -2093 -6 -2158 64 -70 74 -65 -101 -61 1930 2 1403 6 1855 15 1928 27 205 56 349 102 515 41 152 147 391 240 545 64 104 200 278 277 351 76 74 185 158 256 200 32 19 74 44 95 56 38 23 63 36 117 58 17 7 50 22 75 33 103 46 311 105 465 131 104 17 177 25 425 45 72 6 367 -4 470 -15z m-6999 -80 c50 -16 108 -64 128 -108 15 -33 16 -252 21 -2481 l5 -2445 805 -5 c576 -4 812 -8 831 -17 42 -19 89 -63 110 -105 19 -36 20 -55 17 -251 l-3 -212 -30 -44 c-17 -26 -48 -54 -74 -68 l-44 -23 -2002 0 -2001 0 -46 29 c-28 18 -57 48 -75 78 l-28 48 0 185 c0 102 4 202 8 223 5 22 24 56 45 79 70 77 13 72 912 78 l805 5 5 2450 c5 2259 6 2452 22 2480 24 44 68 83 113 99 51 19 418 22 476 5z m5147 -6744 c47 -20 78 -50 105 -100 l22 -40 5 -1200 5 -1200 1460 0 1460 0 5 1200 5 1200 25 45 c15 27 45 58 74 78 l48 32 224 0 c248 0 272 -4 332 -63 67 -64 62 145 62 -2819 0 -1965 -3 -2701 -11 -2734 -15 -57 -82 -128 -135 -143 -53 -15 -413 -14 -471 1 -63 15 -117 71 -138 140 -13 46 -15 186 -15 1187 0 624 -3 1138 -8 1143 -4 4 -663 7 -1463 6 l-1454 -3 -5 -1165 -5 -1165 -28 -47 c-58 -99 -98 -111 -379 -106 l-216 3 -44 30 c-29 20 -52 48 -70 85 l-27 55 2 2725 2 2725 27 47 c21 34 41 53 80 72 51 26 55 26 270 26 175 0 226 -3 256 -15z m-5043 -74 c484 -74 861 -255 1189 -570 354 -342 596 -881 651 -1451 31 -327 31 -1498 0 -1855 -34 -390 -176 -808 -375 -1106 -245 -367 -608 -645 -1030 -790 -268 -92 -523 -132 -850 -133 -405 0 -715 59 -1032 199 -103 45 -285 150 -378 218 -522 382 -827 998 -868 1754 -7 146 -10 1280 -3 1493 4 114 10 188 25 322 36 305 160 670 320 941 150 255 376 490 631 657 111 72 339 182 467 225 168 56 400 102 598 119 123 11 530 -4 655 -23z"/>
 </g>

</svg>